<?xml version="1.0" encoding="UTF-8"?>
<svg version="1.1" xmlns="http://www.w3.org/2000/svg" width="96" height="96">
<path d="M0 0 C4.98674427 3.26278859 6.73438554 8.38546585 7.9375 14 C8.02 14.825 8.1025 15.65 8.1875 16.5 C8.96996094 16.48839844 9.75242188 16.47679688 10.55859375 16.46484375 C11.57050781 16.45582031 12.58242187 16.44679688 13.625 16.4375 C14.63433594 16.42589844 15.64367187 16.41429688 16.68359375 16.40234375 C19.1875 16.5 19.1875 16.5 20.1875 17.5 C20.45184101 19.09415306 20.65631555 20.69829259 20.8359375 22.30419922 C20.95275879 23.32971893 21.06958008 24.35523865 21.18994141 25.41183472 C21.31288574 26.53147614 21.43583008 27.65111755 21.5625 28.8046875 C21.69188965 29.95357452 21.8212793 31.10246155 21.95458984 32.28616333 C22.22891868 34.72895982 22.50115189 37.1719924 22.77148438 39.61523438 C23.18193531 43.32470883 23.59816229 47.03349628 24.015625 50.7421875 C24.28159279 53.11714914 24.54722797 55.49214805 24.8125 57.8671875 C24.93544434 58.96658661 25.05838867 60.06598572 25.18505859 61.19869995 C25.93224782 67.95953858 26.59896296 74.72349765 27.1875 81.5 C25.8675 81.83 24.5475 82.16 23.1875 82.5 C23.1875 81.84 23.1875 81.18 23.1875 80.5 C22.61008057 80.55534912 22.03266113 80.61069824 21.43774414 80.66772461 C0.26229859 82.68313544 -20.53348568 83.65951285 -41.8125 83.5 C-43.20600689 80.71298623 -42.80563372 78.60212518 -42.65063477 75.48974609 C-42.56042809 73.59801163 -42.56042809 73.59801163 -42.46839905 71.6680603 C-42.39701768 70.28651336 -42.32551726 68.90497256 -42.25390625 67.5234375 C-42.18474035 66.11384367 -42.11605651 64.7042261 -42.0478363 63.29458618 C-41.86687303 59.58222746 -41.67934906 55.87022787 -41.49047852 52.15826416 C-41.29895023 48.37132882 -41.11359869 44.58409181 -40.92773438 40.796875 C-40.56205007 33.36427096 -40.18886735 25.93207215 -39.8125 18.5 C-33.3775 18.005 -33.3775 18.005 -26.8125 17.5 C-26.750625 16.51 -26.68875 15.52 -26.625 14.5 C-25.81323556 9.09189367 -23.36963504 4.48888281 -19.01953125 1.10546875 C-12.96602942 -2.3139744 -6.36596076 -3.04695558 0 0 Z M-15.8125 8.5 C-18.30434199 12.23776299 -18.8125 13.9772214 -18.8125 18.5 C-12.5425 18.17 -6.2725 17.84 0.1875 17.5 C0.16258995 9.00769079 0.16258995 9.00769079 -3.25 5.9375 C-7.95661127 3.29720587 -11.60474203 5.69482802 -15.8125 8.5 Z M7.1875 24.5 C8.1875 26.5 8.1875 26.5 8.1875 26.5 Z M-27.8125 25.5 C-26.8125 27.5 -26.8125 27.5 -26.8125 27.5 Z M-26.8125 27.5 C-22.8125 28.5 -22.8125 28.5 -22.8125 28.5 Z " fill="#C26327" transform="translate(58.8125,6.5)"/>
<path d="M0 0 C4.98674427 3.26278859 6.73438554 8.38546585 7.9375 14 C8.02 14.825 8.1025 15.65 8.1875 16.5 C8.96996094 16.48839844 9.75242188 16.47679688 10.55859375 16.46484375 C11.57050781 16.45582031 12.58242187 16.44679688 13.625 16.4375 C14.63433594 16.42589844 15.64367187 16.41429688 16.68359375 16.40234375 C19.1875 16.5 19.1875 16.5 20.1875 17.5 C20.45184101 19.09415306 20.65631555 20.69829259 20.8359375 22.30419922 C20.95275879 23.32971893 21.06958008 24.35523865 21.18994141 25.41183472 C21.31288574 26.53147614 21.43583008 27.65111755 21.5625 28.8046875 C21.69188965 29.95357452 21.8212793 31.10246155 21.95458984 32.28616333 C22.22891868 34.72895982 22.50115189 37.1719924 22.77148438 39.61523438 C23.18193531 43.32470883 23.59816229 47.03349628 24.015625 50.7421875 C24.28159279 53.11714914 24.54722797 55.49214805 24.8125 57.8671875 C24.93544434 58.96658661 25.05838867 60.06598572 25.18505859 61.19869995 C25.93224782 67.95953858 26.59896296 74.72349765 27.1875 81.5 C25.8675 81.83 24.5475 82.16 23.1875 82.5 C23.1875 81.84 23.1875 81.18 23.1875 80.5 C22.61008057 80.55534912 22.03266113 80.61069824 21.43774414 80.66772461 C0.26229859 82.68313544 -20.53348568 83.65951285 -41.8125 83.5 C-43.20600689 80.71298623 -42.80563372 78.60212518 -42.65063477 75.48974609 C-42.56042809 73.59801163 -42.56042809 73.59801163 -42.46839905 71.6680603 C-42.39701768 70.28651336 -42.32551726 68.90497256 -42.25390625 67.5234375 C-42.18474035 66.11384367 -42.11605651 64.7042261 -42.0478363 63.29458618 C-41.86687303 59.58222746 -41.67934906 55.87022787 -41.49047852 52.15826416 C-41.29895023 48.37132882 -41.11359869 44.58409181 -40.92773438 40.796875 C-40.56205007 33.36427096 -40.18886735 25.93207215 -39.8125 18.5 C-33.3775 18.005 -33.3775 18.005 -26.8125 17.5 C-26.750625 16.51 -26.68875 15.52 -26.625 14.5 C-25.81323556 9.09189367 -23.36963504 4.48888281 -19.01953125 1.10546875 C-12.96602942 -2.3139744 -6.36596076 -3.04695558 0 0 Z M-15.8125 8.5 C-18.30434199 12.23776299 -18.8125 13.9772214 -18.8125 18.5 C-12.5425 18.17 -6.2725 17.84 0.1875 17.5 C0.16258995 9.00769079 0.16258995 9.00769079 -3.25 5.9375 C-7.95661127 3.29720587 -11.60474203 5.69482802 -15.8125 8.5 Z M-19.8125 20.5 C-19.51666016 21.90958984 -19.51666016 21.90958984 -19.21484375 23.34765625 C-18.8125 26.5 -18.8125 26.5 -20.375 28.9375 C-22.8125 30.5 -22.8125 30.5 -26.0625 30.25 C-27.42375 29.87875 -27.42375 29.87875 -28.8125 29.5 C-29.1425 27.85 -29.4725 26.2 -29.8125 24.5 C-28.8225 23.84 -27.8325 23.18 -26.8125 22.5 C-26.8125 21.84 -26.8125 21.18 -26.8125 20.5 C-30.4425 20.5 -34.0725 20.5 -37.8125 20.5 C-37.83755615 21.55799805 -37.8626123 22.61599609 -37.88842773 23.70605469 C-37.98365654 27.68710408 -38.0835796 31.66802497 -38.18481445 35.64892578 C-38.22773229 37.36145999 -38.26943082 39.07402525 -38.30981445 40.78662109 C-38.5179298 49.578852 -38.78589195 58.31617964 -39.60522461 67.07714844 C-39.86730147 70.14057686 -39.9115881 73.17659949 -39.875 76.25 C-39.85416667 78 -39.83333333 79.75 -39.8125 81.5 C-25.51458202 81.72686772 -11.38289072 81.02769929 2.875 80 C4.95633852 79.85486962 7.03771868 79.71033523 9.11914062 79.56640625 C14.14243168 79.21777686 19.16509715 78.86119034 24.1875 78.5 C22.99026276 66.28695768 21.71521905 54.0917501 20.24414062 41.90820312 C19.3620674 34.4498353 18.71213568 26.99185836 18.1875 19.5 C14.5575 19.5 10.9275 19.5 7.1875 19.5 C7.1875 20.16 7.1875 20.82 7.1875 21.5 C7.8475 21.5 8.5075 21.5 9.1875 21.5 C9.54630399 26.8820598 9.54630399 26.8820598 8.0625 29.4375 C5.26079973 31.02513015 3.21764356 30.24070176 0.1875 29.5 C-0.76274979 25.80458414 -0.76274979 23.19541586 0.1875 19.5 C-6.51349407 19.34416293 -13.13849318 19.93797837 -19.8125 20.5 Z M7.1875 24.5 C8.1875 26.5 8.1875 26.5 8.1875 26.5 Z M-27.8125 25.5 C-26.8125 27.5 -26.8125 27.5 -26.8125 27.5 Z M-26.8125 27.5 C-22.8125 28.5 -22.8125 28.5 -22.8125 28.5 Z " fill="#060504" transform="translate(58.8125,6.5)"/>
<path d="M0 0 C0 0.66 0 1.32 0 2 C0.66386719 1.95359375 1.32773437 1.9071875 2.01171875 1.859375 C9.25160787 1.56343793 9.25160787 1.56343793 13 3.75 C17.02357414 8.27652091 17.37359337 12.32099362 17.625 18.25 C17.68300781 19.36761719 17.68300781 19.36761719 17.7421875 20.5078125 C17.83605108 22.3381524 17.91909718 24.16904143 18 26 C17.34 26 16.68 26 16 26 C14.11921665 22.23843329 14.64271601 17.62993399 14.4765625 13.48046875 C13.98063438 9.85856751 13.17734717 7.90134192 11 5 C7.89046621 3.4452331 5.43733239 3.71355563 2 4 C-1.81422234 6.05381203 -5.00010435 8.10546637 -7 12 C-7.66549641 15.64718132 -8 19.29303237 -8 23 C-7.01 23.33 -6.02 23.66 -5 24 C-5.32305764 26.98828314 -5.65189121 28.61321245 -7.6875 30.875 C-10.86249229 32.41959084 -12.66802549 32.0140792 -16 31 C-18 28 -18 28 -17.8125 25.875 C-17.544375 25.25625 -17.27625 24.6375 -17 24 C-16.01 23.67 -15.02 23.34 -14 23 C-14 22.34 -14 21.68 -14 21 C-17.63 21 -21.26 21 -25 21 C-25 33.21 -25 45.42 -25 58 C-25.33 58 -25.66 58 -26 58 C-26.96650917 44.98664441 -27.10881834 32.04611042 -27 19 C-20.565 18.505 -20.565 18.505 -14 18 C-13.9071875 16.515 -13.9071875 16.515 -13.8125 15 C-12.97768828 9.21510755 -9.98836316 4.51494336 -5.375 1 C-3 0 -3 0 0 0 Z M-15 26 C-14 28 -14 28 -14 28 Z M-14 28 C-10 29 -10 29 -10 29 Z " fill="#090604" transform="translate(46,6)"/>
<path d="M0 0 C1.9375 0.1875 1.9375 0.1875 4 1 C5.25 3.0625 5.25 3.0625 6 5 C6.99 3.35 7.98 1.7 9 0 C10.65 0.33 12.3 0.66 14 1 C14.82200425 7.24723226 11.92551394 11.71317837 9 17 C4.49416379 13.43077019 0.68302249 10.14245978 -2 5 C-1.81353683 2.70028762 -1.62542316 1.62542316 0 0 Z " fill="#E84521" transform="translate(43,52)"/>
<path d="M0 0 C0.33 -0.33 0.66 -0.66 1 -1 C3.9375 -1.1875 3.9375 -1.1875 7 -1 C9 1 9 1 9.5 4.4375 C9.41278523 10.3572027 6.02551997 15.10153909 3 20 C-2.96253903 19.00405941 -6.50490204 14.0256166 -9.9375 9.375 C-11.163945 6.6335347 -11.46855156 4.96749324 -11 2 C-8.5808175 -2.53596719 -4.31195375 -0.69547641 0 0 Z M-7 1 C-7.66 1.66 -8.32 2.32 -9 3 C-8.71727238 7.072624 -7.34163445 9.22441981 -4.625 12.1875 C-4.01914062 12.86167969 -3.41328125 13.53585938 -2.7890625 14.23046875 C-0.92171007 16.18994372 -0.92171007 16.18994372 2 18 C6.37375909 10.48020532 6.37375909 10.48020532 7 2 C5.35 1.67 3.7 1.34 2 1 C0.515 3.475 0.515 3.475 -1 6 C-1.433125 5.175 -1.86625 4.35 -2.3125 3.5 C-2.869375 2.675 -3.42625 1.85 -4 1 C-4.99 1 -5.98 1 -7 1 Z " fill="#120703" transform="translate(50,51)"/>
<path d="M0 0 C3.67807766 2.10175866 5.49084793 4.0954704 7 8 C7.2952194 10.77394833 7.50712231 13.4700511 7.625 16.25 C7.66367187 16.99507812 7.70234375 17.74015625 7.7421875 18.5078125 C7.83605108 20.3381524 7.91909718 22.16904143 8 24 C7.34 24 6.68 24 6 24 C4.11921665 20.23843329 4.64271601 15.62993399 4.4765625 11.48046875 C3.98063438 7.85856751 3.17734717 5.90134192 1 3 C-2.10953379 1.4452331 -4.56266761 1.71355563 -8 2 C-11.93556679 4.11915135 -14.65173303 6.21205981 -17 10 C-18.00616616 13.48883619 -18.00616616 13.48883619 -18.6875 17.25 C-19.06455078 19.14492188 -19.06455078 19.14492188 -19.44921875 21.078125 C-19.63097656 22.04234375 -19.81273437 23.0065625 -20 24 C-20.66 24 -21.32 24 -22 24 C-22.74760465 16.19168477 -21.46745634 10.51107998 -17 4 C-12.14145257 -0.85854743 -6.53347056 -0.99595588 0 0 Z " fill="#69BABC" transform="translate(56,8)"/>
<path d="M0 0 C0.66 0 1.32 0 2 0 C2.98248524 4.0527516 3.08159574 7.83861737 3 12 C2.34 12 1.68 12 1 12 C-0.26237731 9.47524538 -0.09856404 7.68799534 -0.0625 4.875 C-0.05347656 3.96492188 -0.04445312 3.05484375 -0.03515625 2.1171875 C-0.02355469 1.41851563 -0.01195312 0.71984375 0 0 Z " fill="#60AAAC" transform="translate(61,20)"/>
<path d="M0 0 C0.91007812 0.00902344 1.82015625 0.01804687 2.7578125 0.02734375 C3.45648438 0.03894531 4.15515625 0.05054688 4.875 0.0625 C4.875 0.3925 4.875 0.7225 4.875 1.0625 C0.915 1.7225 -3.045 2.3825 -7.125 3.0625 C-7.125 2.4025 -7.125 1.7425 -7.125 1.0625 C-4.60024538 -0.19987731 -2.81299534 -0.03606404 0 0 Z " fill="#6FC4C7" transform="translate(50.125,7.9375)"/>
</svg>
