<?xml version="1.0" encoding="UTF-8"?>
<svg xmlns="http://www.w3.org/2000/svg" xmlns:xlink="http://www.w3.org/1999/xlink" width="24px" height="24px" viewBox="0 0 24 24" version="1.1">
<g id="surface1">
<path style=" stroke:none;fill-rule:nonzero;fill:rgb(76.078431%,38.823529%,15.294118%);fill-opacity:1;" d="M 14.703125 1.625 C 15.949219 2.441406 16.386719 3.722656 16.6875 5.125 C 16.707031 5.332031 16.730469 5.539062 16.75 5.75 C 16.945312 5.746094 17.140625 5.746094 17.34375 5.742188 C 17.597656 5.738281 17.847656 5.738281 18.109375 5.734375 C 18.363281 5.730469 18.613281 5.730469 18.875 5.726562 C 19.5 5.75 19.5 5.75 19.75 6 C 19.816406 6.398438 19.867188 6.800781 19.914062 7.199219 C 19.941406 7.457031 19.96875 7.714844 20 7.976562 C 20.03125 8.257812 20.0625 8.539062 20.09375 8.828125 C 20.125 9.113281 20.160156 9.402344 20.191406 9.695312 C 20.261719 10.308594 20.328125 10.917969 20.394531 11.527344 C 20.5 12.457031 20.601562 13.382812 20.707031 14.3125 C 20.773438 14.902344 20.839844 15.496094 20.90625 16.09375 C 20.9375 16.367188 20.96875 16.640625 21 16.925781 C 21.1875 18.613281 21.351562 20.304688 21.5 22 C 21.171875 22.082031 20.839844 22.164062 20.5 22.25 C 20.5 22.085938 20.5 21.921875 20.5 21.75 C 20.355469 21.765625 20.210938 21.777344 20.0625 21.792969 C 14.769531 22.296875 9.570312 22.539062 4.25 22.5 C 3.902344 21.804688 4 21.277344 4.039062 20.496094 C 4.0625 20.023438 4.0625 20.023438 4.085938 19.542969 C 4.105469 19.195312 4.121094 18.851562 4.140625 18.503906 C 4.15625 18.152344 4.175781 17.800781 4.191406 17.449219 C 4.238281 16.519531 4.285156 15.59375 4.332031 14.664062 C 4.378906 13.71875 4.425781 12.769531 4.472656 11.824219 C 4.5625 9.964844 4.65625 8.109375 4.75 6.25 C 6.359375 6.125 6.359375 6.125 8 6 C 8.015625 5.753906 8.03125 5.503906 8.046875 5.25 C 8.25 3.898438 8.859375 2.746094 9.949219 1.902344 C 11.460938 1.046875 13.113281 0.863281 14.703125 1.625 Z M 10.75 3.75 C 10.128906 4.683594 10 5.121094 10 6.25 C 11.566406 6.167969 13.136719 6.085938 14.75 6 C 14.742188 3.875 14.742188 3.875 13.890625 3.109375 C 12.714844 2.449219 11.800781 3.046875 10.75 3.75 Z M 16.5 7.75 C 16.75 8.25 16.75 8.25 16.75 8.25 Z M 7.75 8 C 8 8.5 8 8.5 8 8.5 Z M 8 8.5 C 9 8.75 9 8.75 9 8.75 Z M 8 8.5 "/>
<path style=" stroke:none;fill-rule:nonzero;fill:rgb(2.352941%,1.960784%,1.568627%);fill-opacity:1;" d="M 14.703125 1.625 C 15.949219 2.441406 16.386719 3.722656 16.6875 5.125 C 16.707031 5.332031 16.730469 5.539062 16.75 5.75 C 16.945312 5.746094 17.140625 5.746094 17.34375 5.742188 C 17.597656 5.738281 17.847656 5.738281 18.109375 5.734375 C 18.363281 5.730469 18.613281 5.730469 18.875 5.726562 C 19.5 5.75 19.5 5.75 19.75 6 C 19.816406 6.398438 19.867188 6.800781 19.914062 7.199219 C 19.941406 7.457031 19.96875 7.714844 20 7.976562 C 20.03125 8.257812 20.0625 8.539062 20.09375 8.828125 C 20.125 9.113281 20.160156 9.402344 20.191406 9.695312 C 20.261719 10.308594 20.328125 10.917969 20.394531 11.527344 C 20.5 12.457031 20.601562 13.382812 20.707031 14.3125 C 20.773438 14.902344 20.839844 15.496094 20.90625 16.09375 C 20.9375 16.367188 20.96875 16.640625 21 16.925781 C 21.1875 18.613281 21.351562 20.304688 21.5 22 C 21.171875 22.082031 20.839844 22.164062 20.5 22.25 C 20.5 22.085938 20.5 21.921875 20.5 21.75 C 20.355469 21.765625 20.210938 21.777344 20.0625 21.792969 C 14.769531 22.296875 9.570312 22.539062 4.25 22.5 C 3.902344 21.804688 4 21.277344 4.039062 20.496094 C 4.0625 20.023438 4.0625 20.023438 4.085938 19.542969 C 4.105469 19.195312 4.121094 18.851562 4.140625 18.503906 C 4.15625 18.152344 4.175781 17.800781 4.191406 17.449219 C 4.238281 16.519531 4.285156 15.59375 4.332031 14.664062 C 4.378906 13.71875 4.425781 12.769531 4.472656 11.824219 C 4.5625 9.964844 4.65625 8.109375 4.75 6.25 C 6.359375 6.125 6.359375 6.125 8 6 C 8.015625 5.753906 8.03125 5.503906 8.046875 5.25 C 8.25 3.898438 8.859375 2.746094 9.949219 1.902344 C 11.460938 1.046875 13.113281 0.863281 14.703125 1.625 Z M 10.75 3.75 C 10.128906 4.683594 10 5.121094 10 6.25 C 11.566406 6.167969 13.136719 6.085938 14.75 6 C 14.742188 3.875 14.742188 3.875 13.890625 3.109375 C 12.714844 2.449219 11.800781 3.046875 10.75 3.75 Z M 9.75 6.75 C 9.824219 7.101562 9.824219 7.101562 9.898438 7.460938 C 10 8.25 10 8.25 9.609375 8.859375 C 9 9.25 9 9.25 8.1875 9.1875 C 7.847656 9.09375 7.847656 9.09375 7.5 9 C 7.417969 8.585938 7.335938 8.175781 7.25 7.75 C 7.496094 7.585938 7.746094 7.421875 8 7.25 C 8 7.085938 8 6.921875 8 6.75 C 7.09375 6.75 6.183594 6.75 5.25 6.75 C 5.242188 7.015625 5.238281 7.277344 5.230469 7.550781 C 5.207031 8.546875 5.183594 9.542969 5.15625 10.539062 C 5.144531 10.964844 5.136719 11.394531 5.125 11.820312 C 5.074219 14.019531 5.007812 16.203125 4.800781 18.394531 C 4.734375 19.160156 4.726562 19.917969 4.734375 20.6875 C 4.738281 21.125 4.746094 21.5625 4.75 22 C 8.324219 22.058594 11.855469 21.882812 15.421875 21.625 C 15.941406 21.589844 16.460938 21.550781 16.984375 21.515625 C 18.238281 21.429688 19.496094 21.339844 20.75 21.25 C 20.449219 18.195312 20.132812 15.148438 19.765625 12.101562 C 19.542969 10.238281 19.382812 8.371094 19.25 6.5 C 18.34375 6.5 17.433594 6.5 16.5 6.5 C 16.5 6.664062 16.5 6.828125 16.5 7 C 16.664062 7 16.828125 7 17 7 C 17.089844 8.34375 17.089844 8.34375 16.71875 8.984375 C 16.019531 9.382812 15.507812 9.183594 14.75 9 C 14.511719 8.074219 14.511719 7.425781 14.75 6.5 C 13.074219 6.460938 11.417969 6.609375 9.75 6.75 Z M 16.5 7.75 C 16.75 8.25 16.75 8.25 16.75 8.25 Z M 7.75 8 C 8 8.5 8 8.5 8 8.5 Z M 8 8.5 C 9 8.75 9 8.75 9 8.75 Z M 8 8.5 "/>
<path style=" stroke:none;fill-rule:nonzero;fill:rgb(3.529412%,2.352941%,1.568627%);fill-opacity:1;" d="M 11.5 1.5 C 11.5 1.664062 11.5 1.828125 11.5 2 C 11.664062 1.988281 11.832031 1.976562 12.003906 1.964844 C 13.8125 1.890625 13.8125 1.890625 14.75 2.4375 C 15.757812 3.570312 15.84375 4.582031 15.90625 6.0625 C 15.921875 6.34375 15.921875 6.34375 15.9375 6.625 C 15.960938 7.085938 15.980469 7.542969 16 8 C 15.835938 8 15.671875 8 15.5 8 C 15.03125 7.058594 15.160156 5.90625 15.117188 4.871094 C 14.996094 3.964844 14.792969 3.476562 14.25 2.75 C 13.472656 2.359375 12.859375 2.429688 12 2.5 C 11.046875 3.011719 10.25 3.527344 9.75 4.5 C 9.582031 5.410156 9.5 6.324219 9.5 7.25 C 9.746094 7.332031 9.996094 7.414062 10.25 7.5 C 10.167969 8.246094 10.085938 8.652344 9.578125 9.21875 C 8.785156 9.605469 8.332031 9.503906 7.5 9.25 C 7 8.5 7 8.5 7.046875 7.96875 C 7.113281 7.8125 7.179688 7.660156 7.25 7.5 C 7.496094 7.417969 7.746094 7.335938 8 7.25 C 8 7.085938 8 6.921875 8 6.75 C 7.09375 6.75 6.183594 6.75 5.25 6.75 C 5.25 9.800781 5.25 12.855469 5.25 16 C 5.167969 16 5.085938 16 5 16 C 4.757812 12.746094 4.722656 9.511719 4.75 6.25 C 6.359375 6.125 6.359375 6.125 8 6 C 8.023438 5.628906 8.023438 5.628906 8.046875 5.25 C 8.253906 3.804688 9.003906 2.628906 10.15625 1.75 C 10.75 1.5 10.75 1.5 11.5 1.5 Z M 7.75 8 C 8 8.5 8 8.5 8 8.5 Z M 8 8.5 C 9 8.75 9 8.75 9 8.75 Z M 8 8.5 "/>
<path style=" stroke:none;fill-rule:nonzero;fill:rgb(90.980392%,27.058824%,12.941176%);fill-opacity:1;" d="M 10.75 13 C 11.234375 13.046875 11.234375 13.046875 11.75 13.25 C 12.0625 13.765625 12.0625 13.765625 12.25 14.25 C 12.496094 13.835938 12.746094 13.425781 13 13 C 13.414062 13.082031 13.824219 13.164062 14.25 13.25 C 14.457031 14.8125 13.730469 15.929688 13 17.25 C 11.875 16.359375 10.921875 15.535156 10.25 14.25 C 10.296875 13.675781 10.34375 13.40625 10.75 13 Z M 10.75 13 "/>
<path style=" stroke:none;fill-rule:nonzero;fill:rgb(7.058824%,2.745098%,1.176471%);fill-opacity:1;" d="M 12.5 12.75 C 12.582031 12.667969 12.664062 12.585938 12.75 12.5 C 13.484375 12.453125 13.484375 12.453125 14.25 12.5 C 14.75 13 14.75 13 14.875 13.859375 C 14.851562 15.339844 14.007812 16.523438 13.25 17.75 C 11.757812 17.5 10.875 16.257812 10.015625 15.09375 C 9.710938 14.410156 9.632812 13.992188 9.75 13.25 C 10.355469 12.117188 11.421875 12.574219 12.5 12.75 Z M 10.75 13 C 10.585938 13.164062 10.421875 13.328125 10.25 13.5 C 10.320312 14.519531 10.664062 15.054688 11.34375 15.796875 C 11.496094 15.964844 11.648438 16.132812 11.804688 16.308594 C 12.269531 16.796875 12.269531 16.796875 13 17.25 C 14.09375 15.371094 14.09375 15.371094 14.25 13.25 C 13.835938 13.167969 13.425781 13.085938 13 13 C 12.628906 13.617188 12.628906 13.617188 12.25 14.25 C 12.140625 14.042969 12.035156 13.835938 11.921875 13.625 C 11.78125 13.417969 11.644531 13.210938 11.5 13 C 11.253906 13 11.003906 13 10.75 13 Z M 10.75 13 "/>
<path style=" stroke:none;fill-rule:nonzero;fill:rgb(41.176471%,72.941176%,73.72549%);fill-opacity:1;" d="M 14 2 C 14.917969 2.527344 15.371094 3.023438 15.75 4 C 15.824219 4.695312 15.875 5.367188 15.90625 6.0625 C 15.914062 6.25 15.925781 6.433594 15.9375 6.625 C 15.960938 7.085938 15.980469 7.542969 16 8 C 15.835938 8 15.671875 8 15.5 8 C 15.03125 7.058594 15.160156 5.90625 15.117188 4.871094 C 14.996094 3.964844 14.792969 3.476562 14.25 2.75 C 13.472656 2.359375 12.859375 2.429688 12 2.5 C 11.015625 3.03125 10.335938 3.554688 9.75 4.5 C 9.5 5.371094 9.5 5.371094 9.328125 6.3125 C 9.234375 6.785156 9.234375 6.785156 9.136719 7.269531 C 9.09375 7.511719 9.046875 7.75 9 8 C 8.835938 8 8.671875 8 8.5 8 C 8.3125 6.046875 8.632812 4.628906 9.75 3 C 10.964844 1.785156 12.367188 1.75 14 2 Z M 14 2 "/>
<path style=" stroke:none;fill-rule:nonzero;fill:rgb(37.647059%,66.666667%,67.45098%);fill-opacity:1;" d="M 15.25 5 C 15.414062 5 15.578125 5 15.75 5 C 15.996094 6.011719 16.019531 6.960938 16 8 C 15.835938 8 15.671875 8 15.5 8 C 15.183594 7.367188 15.226562 6.921875 15.234375 6.21875 C 15.238281 5.992188 15.238281 5.765625 15.242188 5.53125 C 15.242188 5.355469 15.246094 5.179688 15.25 5 Z M 15.25 5 "/>
<path style=" stroke:none;fill-rule:nonzero;fill:rgb(43.529412%,76.862745%,78.039216%);fill-opacity:1;" d="M 12.53125 1.984375 C 12.757812 1.988281 12.984375 1.988281 13.21875 1.992188 C 13.394531 1.992188 13.570312 1.996094 13.75 2 C 13.75 2.082031 13.75 2.164062 13.75 2.25 C 12.761719 2.414062 11.769531 2.578125 10.75 2.75 C 10.75 2.585938 10.75 2.421875 10.75 2.25 C 11.382812 1.933594 11.828125 1.976562 12.53125 1.984375 Z M 12.53125 1.984375 "/>
</g>
</svg>
