<?xml version="1.0" encoding="UTF-8"?>
<svg xmlns="http://www.w3.org/2000/svg" xmlns:xlink="http://www.w3.org/1999/xlink" width="45px" height="45px" viewBox="0 0 45 45" version="1.1">
<g id="surface1">
<path style=" stroke:none;fill-rule:nonzero;fill:rgb(76.078431%,38.823529%,15.294118%);fill-opacity:1;" d="M 27.570312 3.046875 C 29.90625 4.578125 30.726562 6.976562 31.289062 9.609375 C 31.328125 9.996094 31.367188 10.382812 31.40625 10.78125 C 31.773438 10.777344 32.140625 10.769531 32.519531 10.765625 C 32.992188 10.761719 33.464844 10.757812 33.953125 10.75 C 34.429688 10.746094 34.902344 10.742188 35.390625 10.734375 C 36.5625 10.78125 36.5625 10.78125 37.03125 11.25 C 37.15625 11.996094 37.25 12.75 37.335938 13.503906 C 37.390625 13.984375 37.445312 14.464844 37.5 14.957031 C 37.558594 15.484375 37.617188 16.007812 37.675781 16.550781 C 37.738281 17.085938 37.796875 17.625 37.859375 18.179688 C 37.988281 19.324219 38.117188 20.472656 38.242188 21.617188 C 38.433594 23.355469 38.628906 25.09375 38.824219 26.832031 C 38.949219 27.945312 39.074219 29.058594 39.199219 30.171875 C 39.257812 30.6875 39.316406 31.203125 39.375 31.734375 C 39.722656 34.902344 40.035156 38.074219 40.3125 41.25 C 39.695312 41.40625 39.074219 41.558594 38.4375 41.71875 C 38.4375 41.410156 38.4375 41.101562 38.4375 40.78125 C 38.167969 40.808594 37.894531 40.832031 37.617188 40.859375 C 27.691406 41.804688 17.941406 42.261719 7.96875 42.1875 C 7.316406 40.882812 7.503906 39.890625 7.574219 38.433594 C 7.617188 37.546875 7.617188 37.546875 7.660156 36.640625 C 7.695312 35.992188 7.726562 35.347656 7.761719 34.699219 C 7.792969 34.039062 7.828125 33.378906 7.859375 32.714844 C 7.941406 30.976562 8.03125 29.234375 8.121094 27.496094 C 8.210938 25.722656 8.296875 23.945312 8.382812 22.171875 C 8.554688 18.6875 8.730469 15.203125 8.90625 11.71875 C 11.921875 11.488281 11.921875 11.488281 15 11.25 C 15.027344 10.785156 15.058594 10.320312 15.085938 9.84375 C 15.46875 7.308594 16.613281 5.152344 18.652344 3.566406 C 21.492188 1.960938 24.585938 1.617188 27.570312 3.046875 Z M 20.15625 7.03125 C 18.988281 8.785156 18.75 9.597656 18.75 11.71875 C 21.6875 11.5625 24.628906 11.410156 27.65625 11.25 C 27.644531 7.269531 27.644531 7.269531 26.046875 5.828125 C 23.839844 4.59375 22.128906 5.714844 20.15625 7.03125 Z M 30.9375 14.53125 C 31.40625 15.46875 31.40625 15.46875 31.40625 15.46875 Z M 14.53125 15 C 15 15.9375 15 15.9375 15 15.9375 Z M 15 15.9375 C 16.875 16.40625 16.875 16.40625 16.875 16.40625 Z M 15 15.9375 "/>
<path style=" stroke:none;fill-rule:nonzero;fill:rgb(2.352941%,1.960784%,1.568627%);fill-opacity:1;" d="M 27.570312 3.046875 C 29.90625 4.578125 30.726562 6.976562 31.289062 9.609375 C 31.328125 9.996094 31.367188 10.382812 31.40625 10.78125 C 31.773438 10.777344 32.140625 10.769531 32.519531 10.765625 C 32.992188 10.761719 33.464844 10.757812 33.953125 10.75 C 34.429688 10.746094 34.902344 10.742188 35.390625 10.734375 C 36.5625 10.78125 36.5625 10.78125 37.03125 11.25 C 37.15625 11.996094 37.25 12.75 37.335938 13.503906 C 37.390625 13.984375 37.445312 14.464844 37.5 14.957031 C 37.558594 15.484375 37.617188 16.007812 37.675781 16.550781 C 37.738281 17.085938 37.796875 17.625 37.859375 18.179688 C 37.988281 19.324219 38.117188 20.472656 38.242188 21.617188 C 38.433594 23.355469 38.628906 25.09375 38.824219 26.832031 C 38.949219 27.945312 39.074219 29.058594 39.199219 30.171875 C 39.257812 30.6875 39.316406 31.203125 39.375 31.734375 C 39.722656 34.902344 40.035156 38.074219 40.3125 41.25 C 39.695312 41.40625 39.074219 41.558594 38.4375 41.71875 C 38.4375 41.410156 38.4375 41.101562 38.4375 40.78125 C 38.167969 40.808594 37.894531 40.832031 37.617188 40.859375 C 27.691406 41.804688 17.941406 42.261719 7.96875 42.1875 C 7.316406 40.882812 7.503906 39.890625 7.574219 38.433594 C 7.617188 37.546875 7.617188 37.546875 7.660156 36.640625 C 7.695312 35.992188 7.726562 35.347656 7.761719 34.699219 C 7.792969 34.039062 7.828125 33.378906 7.859375 32.714844 C 7.941406 30.976562 8.03125 29.234375 8.121094 27.496094 C 8.210938 25.722656 8.296875 23.945312 8.382812 22.171875 C 8.554688 18.6875 8.730469 15.203125 8.90625 11.71875 C 11.921875 11.488281 11.921875 11.488281 15 11.25 C 15.027344 10.785156 15.058594 10.320312 15.085938 9.84375 C 15.46875 7.308594 16.613281 5.152344 18.652344 3.566406 C 21.492188 1.960938 24.585938 1.617188 27.570312 3.046875 Z M 20.15625 7.03125 C 18.988281 8.785156 18.75 9.597656 18.75 11.71875 C 21.6875 11.5625 24.628906 11.410156 27.65625 11.25 C 27.644531 7.269531 27.644531 7.269531 26.046875 5.828125 C 23.839844 4.59375 22.128906 5.714844 20.15625 7.03125 Z M 18.28125 12.65625 C 18.421875 13.316406 18.421875 13.316406 18.5625 13.992188 C 18.75 15.46875 18.75 15.46875 18.015625 16.609375 C 16.875 17.34375 16.875 17.34375 15.351562 17.226562 C 14.714844 17.050781 14.714844 17.050781 14.0625 16.875 C 13.90625 16.101562 13.753906 15.328125 13.59375 14.53125 C 14.058594 14.222656 14.523438 13.914062 15 13.59375 C 15 13.285156 15 12.976562 15 12.65625 C 13.296875 12.65625 11.597656 12.65625 9.84375 12.65625 C 9.832031 13.152344 9.820312 13.648438 9.808594 14.160156 C 9.761719 16.023438 9.714844 17.890625 9.667969 19.757812 C 9.648438 20.558594 9.628906 21.363281 9.609375 22.164062 C 9.511719 26.285156 9.386719 30.382812 9.003906 34.488281 C 8.878906 35.925781 8.859375 37.347656 8.875 38.789062 C 8.886719 39.609375 8.898438 40.429688 8.90625 41.25 C 15.609375 41.355469 22.234375 41.027344 28.914062 40.546875 C 29.890625 40.480469 30.867188 40.410156 31.84375 40.34375 C 34.199219 40.179688 36.550781 40.011719 38.90625 39.84375 C 38.34375 34.117188 37.746094 28.402344 37.058594 22.691406 C 36.644531 19.195312 36.339844 15.699219 36.09375 12.1875 C 34.390625 12.1875 32.691406 12.1875 30.9375 12.1875 C 30.9375 12.496094 30.9375 12.804688 30.9375 13.125 C 31.246094 13.125 31.554688 13.125 31.875 13.125 C 32.042969 15.648438 32.042969 15.648438 31.347656 16.84375 C 30.035156 17.589844 29.078125 17.222656 27.65625 16.875 C 27.210938 15.144531 27.210938 13.917969 27.65625 12.1875 C 24.515625 12.113281 21.410156 12.394531 18.28125 12.65625 Z M 30.9375 14.53125 C 31.40625 15.46875 31.40625 15.46875 31.40625 15.46875 Z M 14.53125 15 C 15 15.9375 15 15.9375 15 15.9375 Z M 15 15.9375 C 16.875 16.40625 16.875 16.40625 16.875 16.40625 Z M 15 15.9375 "/>
<path style=" stroke:none;fill-rule:nonzero;fill:rgb(3.529412%,2.352941%,1.568627%);fill-opacity:1;" d="M 21.5625 2.8125 C 21.5625 3.121094 21.5625 3.429688 21.5625 3.75 C 21.875 3.726562 22.183594 3.707031 22.503906 3.683594 C 25.898438 3.546875 25.898438 3.546875 27.65625 4.570312 C 29.542969 6.691406 29.707031 8.589844 29.824219 11.367188 C 29.851562 11.890625 29.851562 11.890625 29.878906 12.425781 C 29.921875 13.285156 29.960938 14.140625 30 15 C 29.691406 15 29.382812 15 29.0625 15 C 28.179688 13.238281 28.425781 11.078125 28.347656 9.132812 C 28.117188 7.433594 27.738281 6.515625 26.71875 5.15625 C 25.261719 4.425781 24.109375 4.554688 22.5 4.6875 C 20.710938 5.648438 19.21875 6.613281 18.28125 8.4375 C 17.96875 10.148438 17.8125 11.855469 17.8125 13.59375 C 18.277344 13.75 18.742188 13.902344 19.21875 14.0625 C 19.066406 15.464844 18.914062 16.226562 17.960938 17.285156 C 16.472656 18.007812 15.625 17.820312 14.0625 17.34375 C 13.125 15.9375 13.125 15.9375 13.210938 14.941406 C 13.339844 14.652344 13.464844 14.363281 13.59375 14.0625 C 14.058594 13.90625 14.523438 13.753906 15 13.59375 C 15 13.285156 15 12.976562 15 12.65625 C 13.296875 12.65625 11.597656 12.65625 9.84375 12.65625 C 9.84375 18.378906 9.84375 24.101562 9.84375 30 C 9.6875 30 9.535156 30 9.375 30 C 8.921875 23.898438 8.855469 17.835938 8.90625 11.71875 C 11.921875 11.488281 11.921875 11.488281 15 11.25 C 15.042969 10.554688 15.042969 10.554688 15.085938 9.84375 C 15.480469 7.132812 16.878906 4.929688 19.042969 3.28125 C 20.15625 2.8125 20.15625 2.8125 21.5625 2.8125 Z M 14.53125 15 C 15 15.9375 15 15.9375 15 15.9375 Z M 15 15.9375 C 16.875 16.40625 16.875 16.40625 16.875 16.40625 Z M 15 15.9375 "/>
<path style=" stroke:none;fill-rule:nonzero;fill:rgb(90.980392%,27.058824%,12.941176%);fill-opacity:1;" d="M 20.15625 24.375 C 21.0625 24.460938 21.0625 24.460938 22.03125 24.84375 C 22.617188 25.8125 22.617188 25.8125 22.96875 26.71875 C 23.433594 25.945312 23.898438 25.171875 24.375 24.375 C 25.148438 24.53125 25.921875 24.683594 26.71875 24.84375 C 27.105469 27.773438 25.746094 29.867188 24.375 32.34375 C 22.261719 30.671875 20.476562 29.128906 19.21875 26.71875 C 19.304688 25.640625 19.394531 25.136719 20.15625 24.375 Z M 20.15625 24.375 "/>
<path style=" stroke:none;fill-rule:nonzero;fill:rgb(7.058824%,2.745098%,1.176471%);fill-opacity:1;" d="M 23.4375 23.90625 C 23.59375 23.75 23.746094 23.597656 23.90625 23.4375 C 25.28125 23.351562 25.28125 23.351562 26.71875 23.4375 C 27.65625 24.375 27.65625 24.375 27.890625 25.984375 C 27.851562 28.761719 26.261719 30.984375 24.84375 33.28125 C 22.046875 32.8125 20.386719 30.480469 18.78125 28.300781 C 18.203125 27.015625 18.0625 26.234375 18.28125 24.84375 C 19.414062 22.71875 21.417969 23.582031 23.4375 23.90625 Z M 20.15625 24.375 C 19.847656 24.683594 19.539062 24.992188 19.21875 25.3125 C 19.351562 27.222656 19.996094 28.230469 21.269531 29.617188 C 21.554688 29.933594 21.835938 30.25 22.128906 30.578125 C 23.003906 31.496094 23.003906 31.496094 24.375 32.34375 C 26.425781 28.820312 26.425781 28.820312 26.71875 24.84375 C 25.945312 24.6875 25.171875 24.535156 24.375 24.375 C 23.679688 25.535156 23.679688 25.535156 22.96875 26.71875 C 22.765625 26.332031 22.5625 25.945312 22.351562 25.546875 C 22.09375 25.160156 21.832031 24.773438 21.5625 24.375 C 21.097656 24.375 20.632812 24.375 20.15625 24.375 Z M 20.15625 24.375 "/>
<path style=" stroke:none;fill-rule:nonzero;fill:rgb(41.176471%,72.941176%,73.72549%);fill-opacity:1;" d="M 26.25 3.75 C 27.972656 4.734375 28.824219 5.667969 29.53125 7.5 C 29.667969 8.800781 29.769531 10.0625 29.824219 11.367188 C 29.84375 11.714844 29.859375 12.066406 29.878906 12.425781 C 29.921875 13.285156 29.960938 14.140625 30 15 C 29.691406 15 29.382812 15 29.0625 15 C 28.179688 13.238281 28.425781 11.078125 28.347656 9.132812 C 28.117188 7.433594 27.738281 6.515625 26.71875 5.15625 C 25.261719 4.425781 24.109375 4.554688 22.5 4.6875 C 20.65625 5.679688 19.382812 6.660156 18.28125 8.4375 C 17.808594 10.074219 17.808594 10.074219 17.492188 11.835938 C 17.3125 12.722656 17.3125 12.722656 17.132812 13.628906 C 17.046875 14.082031 16.960938 14.535156 16.875 15 C 16.566406 15 16.257812 15 15.9375 15 C 15.585938 11.339844 16.1875 8.675781 18.28125 5.625 C 20.558594 3.347656 23.1875 3.28125 26.25 3.75 Z M 26.25 3.75 "/>
<path style=" stroke:none;fill-rule:nonzero;fill:rgb(37.647059%,66.666667%,67.45098%);fill-opacity:1;" d="M 28.59375 9.375 C 28.902344 9.375 29.210938 9.375 29.53125 9.375 C 29.992188 11.273438 30.039062 13.050781 30 15 C 29.691406 15 29.382812 15 29.0625 15 C 28.472656 13.816406 28.546875 12.980469 28.5625 11.660156 C 28.570312 11.234375 28.574219 10.808594 28.578125 10.367188 C 28.582031 10.039062 28.589844 9.710938 28.59375 9.375 Z M 28.59375 9.375 "/>
<path style=" stroke:none;fill-rule:nonzero;fill:rgb(43.529412%,76.862745%,78.039216%);fill-opacity:1;" d="M 23.496094 3.71875 C 23.921875 3.726562 24.347656 3.730469 24.789062 3.734375 C 25.117188 3.738281 25.445312 3.746094 25.78125 3.75 C 25.78125 3.90625 25.78125 4.058594 25.78125 4.21875 C 23.925781 4.527344 22.070312 4.835938 20.15625 5.15625 C 20.15625 4.847656 20.15625 4.539062 20.15625 4.21875 C 21.339844 3.628906 22.175781 3.703125 23.496094 3.71875 Z M 23.496094 3.71875 "/>
</g>
</svg>
